<svg xmlns="http://www.w3.org/2000/svg" viewBox="0 0 78.3 110.7"><defs><style>.cls-1{opacity:0.1;}.cls-2{fill:#fff;fill-rule:evenodd;}</style></defs><title>geo mark gray</title><g id="Слой_2" data-name="Слой 2"><g id="Слой_1-2" data-name="Слой 1"><g class="cls-1"><path class="cls-2" d="M49.5,16.5l-.9-.4L41.1,34.5l.9.4Zm-9.9,20a2.9,2.9,0,1,0,2.8,2.9A2.9,2.9,0,0,0,39.6,36.6ZM39.1,0A39.4,39.4,0,0,0,0,39.6c0,21.9,34.3,71,39.8,71s38.5-49.2,38.5-71A39.4,39.4,0,0,0,39.1,0Zm.5,68.3A28.4,28.4,0,1,1,67.9,39.9,28.4,28.4,0,0,1,39.6,68.3Zm3.4-24.7,9.4,8.7.6-.7-9.4-8.7Z"/></g></g></g></svg>