<svg xmlns="http://www.w3.org/2000/svg" viewBox="0 0 162.3 144.3"><defs><style>.cls-1,.cls-2{fill:#fff;}.cls-2{font-size:9.75px;stroke:#fff;stroke-miterlimit:10;stroke-width:0.5px;font-family:Neogrey-Medium, Neogrey Medium;letter-spacing:0.14em;}</style></defs><title>logo</title><g id="Слой_2" data-name="Слой 2"><g id="Слой_1-2" data-name="Слой 1"><path class="cls-1" d="M25.2,71.8H17.2v2q0,2-3.7,2V67.7q0-2,3.7-2H28.9V75.9H25.2Zm0-4.1H17.2v2h7.9Z"/><path class="cls-1" d="M42.4,65.7q3.7,0,3.7,2t-3.3,2h0q3.3.1,3.3,2v2q0,2-3.7,2H34.5q-3.7,0-3.7-2V65.7Zm-7.9,2v5.8q0,.3.5.3h7q.5,0,.5-.3V71.8H40q-3.7,0-3.7-2h6.1v-2Z"/><path class="cls-1" d="M54.2,67.7H51.7q-3.7,0-3.7-2H60.1q3.7,0,3.7,2H58v6.1q0,2-3.7,2Z"/><path class="cls-1" d="M81,73.9q0,2-3.7,2H69.4q-3.7,0-3.7-2V67.7q0-2,3.7-2h7.9q3.7,0,3.7,2Zm-3.7-.3V68.1q0-.3-.5-.3h-7q-.5,0-.5.3v5.4q0,.3.5.3h7Q77.3,73.9,77.3,73.5Z"/><path class="cls-1" d="M94.5,68.1q0-.3-.5-.3h-7q-.5,0-.5.3v5.4q0,.3.5.3h7q.5,0,.5-.3,0-2,3.7-2v2.4q0,2-3.7,2H86.6q-3.7,0-3.7-2V67.7q0-2,3.7-2h7.9q3.7,0,3.7,2t-3.7,2Z"/><path class="cls-1" d="M106.4,67.7h-2.6q-3.7,0-3.7-2h12.1q3.7,0,3.7,2h-5.8v6.1q0,2-3.7,2Z"/><path class="cls-1" d="M133.1,73.9q0,2-3.7,2h-7.9q-3.7,0-3.7-2V67.7q0-2,3.7-2h7.9q3.7,0,3.7,2Zm-3.7-.3V68.1q0-.3-.5-.3h-7q-.5,0-.5.3v5.4q0,.3.5.3h7Q129.4,73.9,129.4,73.5Z"/><path class="cls-1" d="M138.7,73.2V68.1q0-.3.5-.3h7q.5,0,.5.3v7.8s3.7-.5,3.7-3V67.7q0-2-3.7-2h-7.9q-3.7,0-3.7,2v8.2S138.7,75,138.7,73.2Z"/><text class="cls-2" transform="translate(38.8 93) scale(0.93 1)">ЗАПЧАСТИНИ</text><path class="cls-1" d="M31.3,90.7a1.3,1.3,0,0,0-1.2-1.3H8.9a6.9,6.9,0,0,1,0-13.7,1.3,1.3,0,0,0,0-2.6C4,73.1,0,77.3,0,82.6S4,92,8.9,92H30.1A1.3,1.3,0,0,0,31.3,90.7Z"/><path class="cls-1" d="M153.5,73.1a1.3,1.3,0,0,0,0,2.6,6.9,6.9,0,0,1,0,13.7H131.1a1.3,1.3,0,0,0,0,2.6h22.3c4.9,0,8.9-4.2,8.9-9.5S158.3,73.1,153.5,73.1Z"/><path class="cls-1" d="M131,113.5c-14.9,15.1-40.1,25.1-46.2,25.1s-31.3-10-46.2-25.1c-1.6-1.6-3.7-5.3-5.9-12H28.2c2.4,7.4,4.8,13.2,7.1,15.4,14.7,14.8,40.9,27.4,49.5,27.4s34.8-12.5,49.5-27.4c2.3-2.4,4.8-8.4,7.1-15.4h-4.5C134.7,108.3,132.6,111.8,131,113.5Z"/><path class="cls-1" d="M21.3,47.8l.8,7.5,4.1-.6-.8-7.5c-.9-8.1-2.3-21.3-3.4-30.9C51.6,6.2,69.9,4.8,84,4.8s32.3,1.4,61.9,11.5c-1.1,9.6-2.5,22.7-3.4,30.8l-.8,7.5,4.1.6.8-7.6c.9-8.7,2.5-23.2,3.6-32.8l.2-2.1-1.7-.6C117.6,1.5,98.5,0,84,0S50.2,1.5,19.1,12.3l-1.7.6.2,2.1C18.8,24.6,20.3,39.1,21.3,47.8Z"/><rect class="cls-1" x="52.3" y="100.6" width="7.1" height="7.65"/><rect class="cls-1" x="59.5" y="108.3" width="7.1" height="7.65"/><rect class="cls-1" x="66.6" y="100.6" width="7.1" height="7.65"/><rect class="cls-1" x="73.8" y="108.3" width="7.1" height="7.65"/><rect class="cls-1" x="80.9" y="100.6" width="7.1" height="7.65"/><rect class="cls-1" x="88.1" y="108.3" width="7.1" height="7.65"/><rect class="cls-1" x="95.2" y="100.6" width="7.1" height="7.65"/><rect class="cls-1" x="102.4" y="108.3" width="7.1" height="7.65"/><rect class="cls-1" x="109.5" y="100.6" width="7.1" height="7.65"/><path class="cls-1" d="M43.9,38c-.2,0-.5.3-.7.7l.3-.2c1-.3,1.4,2.6,1.5,5.8s-.4,5.9-1.3,5.8l-.3-.2c.2.4.5.7.7.7s1.4-2.8,1.4-6.3S44.7,38,43.9,38Z"/><path class="cls-1" d="M127.8,44.1c-.1-.9.3-4.4.2-5.3a10.3,10.3,0,0,0-1-2.6l-3.6,2.1a9.6,9.6,0,0,1-2.4.3c-.2.1-.9,2.2-1.9,2.6s-14.3,1.3-16.6,1.1-6.8-1.3-7-2H90.9c-.9,0-2.6-.8-3.9-1.1s-5.7-.7-9-.9c-.4-.4-2.2-3.3-2.2-3.3s15.1,1.6,19.8,1.7,26.2-.8,27-.9a14.5,14.5,0,0,0,3.4-2.3,34.1,34.1,0,0,0-3.7-2.9c-2.9-1.4-7.6-1.9-15.2-2.7-5.8-4.2-7.4-5.2-12.6-7.4s-30.7-2.5-36.9-.1S46.7,29,45.7,30s0,0-1.7,1l-.6.5.5-.2a13,13,0,0,1,3.1-.4h4.3l3.4.2a39.7,39.7,0,0,1,5.3.5l3.2.5h.4l.5.2.2.3a.8.8,0,0,1,.1.4,1.2,1.2,0,0,1-.2.5l-.7.9-.5.6-2.3,2.1h-.3l-6.5-.2-2.7-.3-5.4-.8h2.7l2.7.2,9,.2a20.1,20.1,0,0,0,2.3-3.2h-.5c-2-.5-6.6-.8-8.6-1.1a49.8,49.8,0,0,0-6.5-.7,15.1,15.1,0,0,0-3,.2l-.9.2a7.2,7.2,0,0,0-1.4,3.7,36.1,36.1,0,0,1-.6,4.1,5.8,5.8,0,0,0,.6,2.5c0-3,.4-4.9,1.2-5.6s2.4,2.4,2.5,2.9L47,47.8h.8s3,.8,14.5,3.5c-1.1-6.8.9-9.4,2-11s1-3.7,2.8-3.5c4.5.2,6.8,13.1,7.8,16.9,1.8.6,17.1-.2,19.3-.4l14.6-1.1,17.1-1.5,2-.8a7.7,7.7,0,0,0,.7-1.6C128.5,48,127.9,45,127.8,44.1ZM48.5,45s0-.9,1.4-.9,8.6,2.7,10.8,3.9ZM64,28.8c-.4-.3-2.2.1-2.2.1s.2-1.3.2-1.4a4.7,4.7,0,0,0-2.3-1.9c-1.1-.2-5.5.7-5.7,1.1s.9,2.5.9,2.5a3,3,0,0,0,1.2.6H48.3l-.9-1.4a28.1,28.1,0,0,1,5.9-5.4c4.1-3,7.5-2.8,9-2.2s1.6,3.7,1.8,4.5S64.4,29.1,64,28.8Zm3.2.1a25.1,25.1,0,0,0-2.4-8.2c14.6-1.2,22.9-.9,29.8-.1A39.3,39.3,0,0,1,106,27.8c-2.7-.3-12.3-.2-13.8-.1S78.4,28.2,67.1,28.9ZM126,47.2a13.4,13.4,0,0,1-2.3,1.9c-.9.4-11.5,1.5-12.9,1.6s-11.9.8-15.9.7-7.9-1.5-9.7-3l-.3-.2.3.2c.4.2.8,0,1.4,0l-1.9-2.9s7.4,1.2,9.5,1.2,10.1,0,15.1-.4,15-1.5,15-1.5a9.1,9.1,0,0,0,2.6-2.2C126.8,43.4,126,47.2,126,47.2Z"/><path class="cls-1" d="M69.7,55.9c-2.8,0-5.6-3.4-5.6-8s1-6.3,3.5-7.8c-2.7.8-4.8,4.2-4.8,8.2s2.7,8.4,6,8.4,6-3.8,6-8.4c0-.1,0-.3,0-.4C74.7,52.3,72.4,55.9,69.7,55.9Z"/></g></g></svg>