<svg xmlns="http://www.w3.org/2000/svg" viewBox="0 0 102.5 70.9"><defs><style>.cls-1{opacity:0.1;}.cls-2{fill:#fff;fill-rule:evenodd;}</style></defs><title>phone mark gray</title><g id="Слой_2" data-name="Слой 2"><g id="Слой_1-2" data-name="Слой 1"><g class="cls-1"><path class="cls-2" d="M51,30.6a20.2,20.2,0,1,0,20,20.2A20.1,20.1,0,0,0,51,30.6Zm0,36.5A16.3,16.3,0,1,1,67.3,50.7,16.3,16.3,0,0,1,51,67.1Zm50.3-47.9C98.6,12.9,81.4.1,51.3,0h0C21.3-.5,4,11.7,1.2,17.8S.4,39.3,6.9,39.1,23.6,35,25.3,33.9s-2.1-5.9.9-9.7C32.7,16.5,48.1,16,50.3,16h.4c3.3.2,22.4,1.7,25.6,9,2,4.4-.8,8.6.8,9.7s12.5,5.4,18.3,5.7S104.1,25.3,101.4,19.1Zm-49,23H50.6a1.5,1.5,0,0,0-1.5,1.5V56.9a1.5,1.5,0,0,0,1.5,1.5h1.8a1.5,1.5,0,0,0,1.5-1.5V43.6A1.5,1.5,0,0,0,52.4,42.1Z"/></g></g></g></svg>