<svg xmlns="http://www.w3.org/2000/svg" viewBox="0 0 68.9 42.5"><defs><style>.cls-1{fill:none;stroke:#fff;stroke-miterlimit:10;}</style></defs><title>gears</title><g id="Слой_2" data-name="Слой 2"><g id="Слой_1-2" data-name="Слой 1"><path class="cls-1" d="M66.4,27.9h-.4a.3.3,0,0,1-.2-.3,11.2,11.2,0,0,0-.8-3.5.3.3,0,0,1,.1-.3l.3-.2a2.4,2.4,0,1,0-2.7-3.9l-.4.3h-.3a11.2,11.2,0,0,0-3-1.9.3.3,0,0,1-.2-.3v-.4a2.4,2.4,0,0,0-1.9-2.7h0a2.4,2.4,0,0,0-2.7,1.9v.4a.3.3,0,0,1-.3.2,11.2,11.2,0,0,0-3.5.8h-.3l-.3-.4a2.4,2.4,0,0,0-3.3-.6h0a2.4,2.4,0,0,0-.6,3.3l.2.3a.3.3,0,0,1,0,.3,11.2,11.2,0,0,0-2,3l-.3.2h-.4a2.4,2.4,0,0,0-2.7,1.9h0a2.4,2.4,0,0,0,1.9,2.7h.3a.3.3,0,0,1,.2.3,11.2,11.2,0,0,0,.8,3.6.3.3,0,0,1-.1.3l-.2.2a2.4,2.4,0,0,0-.6,3.3h0a2.4,2.4,0,0,0,3.3.6l.2-.2H47a11.2,11.2,0,0,0,3.1,2,.3.3,0,0,1,.2.3v.2a2.4,2.4,0,0,0,1.9,2.7h0A2.4,2.4,0,0,0,54.9,40v-.2a.3.3,0,0,1,.3-.2,11.2,11.2,0,0,0,3.6-.8h.3l.2.2a2.4,2.4,0,0,0,3.3.6h0a2.4,2.4,0,0,0,.6-3.3l-.2-.2a.3.3,0,0,1,0-.3,11.2,11.2,0,0,0,2-3.1l.3-.2h.3a2.4,2.4,0,0,0,2.7-1.9h0A2.4,2.4,0,0,0,66.4,27.9ZM53.8,33.1a4.9,4.9,0,1,1,5.6-3.9A4.9,4.9,0,0,1,53.8,33.1Z"/><path class="cls-1" d="M39.2,19.2a17.9,17.9,0,0,0-.6-2.9l2.3-1.8-.5-1.2L39.9,12l-2.9.4a18.1,18.1,0,0,0-1.6-2.4l1.5-2.6-.9-.9L35,5.6,32.4,7.1A18.1,18.1,0,0,0,30,5.5l.4-2.9-1.2-.5-1.2-.5L26.1,3.9l-2.8-.6L22.6.5H19.9l-.8,2.9-2.9.6L14.5,1.6l-1.2.5L12,2.6l.4,2.9L10.1,7.1,7.5,5.6l-.9.9-.9.9,1.5,2.6a18.1,18.1,0,0,0-1.7,2.5l-2.9-.4-.5,1.2-.5,1.2,2.3,1.8a17.9,17.9,0,0,0-.6,2.8l-2.8.8v2.6l2.8.8a17.9,17.9,0,0,0,.6,2.9L1.6,28l.5,1.2.5,1.2,2.9-.4a18.1,18.1,0,0,0,1.6,2.4L5.6,35l.9.9.9.9L10,35.4a18.1,18.1,0,0,0,2.5,1.7L12.1,40l1.2.5,1.2.5,1.8-2.3,2.8.6.7,2.8h2.6l.7-2.8,2.9-.6L28,40.9l1.2-.5,1.2-.5L30.1,37l2.4-1.6L35,36.9l.9-.9.9-.9-1.5-2.5A18.1,18.1,0,0,0,37.1,30l2.9.4.5-1.2.5-1.2-2.3-1.8a17.9,17.9,0,0,0,.6-2.8l2.8-.8V19.9ZM21.3,32.7A11.5,11.5,0,1,1,32.7,21.3,11.5,11.5,0,0,1,21.3,32.7Z"/></g></g></svg>