<?xml version="1.0" encoding="UTF-8" standalone="no"?>
<svg
   xmlns:dc="http://purl.org/dc/elements/1.1/"
   xmlns:cc="http://creativecommons.org/ns#"
   xmlns:rdf="http://www.w3.org/1999/02/22-rdf-syntax-ns#"
   xmlns:svg="http://www.w3.org/2000/svg"
   xmlns="http://www.w3.org/2000/svg"
   xmlns:xlink="http://www.w3.org/1999/xlink"
   width="46.341934mm"
   height="11.804516mm"
   viewBox="0 0 46.341933 11.804516"
   version="1.1"
   id="svg5361">
  <defs
     id="defs5355">
    <linearGradient
       y2="-69.447914"
       x2="320.80728"
       y1="-69.258926"
       x1="380.90552"
       gradientTransform="matrix(0.46320899,0,0,0.33098249,354.24043,88.538394)"
       gradientUnits="userSpaceOnUse"
       id="linearGradient5420"
       xlink:href="#linearGradient4581" />
    <linearGradient
       id="linearGradient4581">
      <stop
         id="stop4577"
         offset="0"
         style="stop-color:#ff0000;stop-opacity:1;" />
      <stop
         id="stop4579"
         offset="1"
         style="stop-color:#ff0000;stop-opacity:0;" />
    </linearGradient>
    <linearGradient
       y2="-69.447914"
       x2="320.80728"
       y1="-69.258926"
       x1="380.90552"
       gradientTransform="matrix(1.0678188,0,0,0.33098249,160.24712,91.103764)"
       gradientUnits="userSpaceOnUse"
       id="linearGradient5424"
       xlink:href="#linearGradient4581" />
    <linearGradient
       y2="-69.447914"
       x2="320.80728"
       y1="-69.258926"
       x1="380.90552"
       gradientTransform="matrix(1.0678187,0,0,0.33098249,160.24701,85.97302)"
       gradientUnits="userSpaceOnUse"
       id="linearGradient5473"
       xlink:href="#linearGradient4581" />
    <linearGradient
       y2="-69.447914"
       x2="320.80728"
       y1="-69.258926"
       x1="380.90552"
       gradientTransform="matrix(1.0678188,0,0,0.33098249,-973.92379,91.103764)"
       gradientUnits="userSpaceOnUse"
       id="linearGradient5479"
       xlink:href="#linearGradient4581" />
    <linearGradient
       y2="-69.447914"
       x2="320.80728"
       y1="-69.258926"
       x1="380.90552"
       gradientTransform="matrix(1.0678187,0,0,0.33098249,-973.9239,85.97302)"
       gradientUnits="userSpaceOnUse"
       id="linearGradient5485"
       xlink:href="#linearGradient4581" />
    <linearGradient
       y2="-69.447914"
       x2="320.80728"
       y1="-69.258926"
       x1="380.90552"
       gradientTransform="matrix(0.47091602,0,0,0.33098249,-783.03999,88.538394)"
       gradientUnits="userSpaceOnUse"
       id="linearGradient5489"
       xlink:href="#linearGradient4581" />
  </defs>
  <metadata
     id="metadata5358">
    <rdf:RDF>
      <cc:Work
         rdf:about="">
        <dc:format>image/svg+xml</dc:format>
        <dc:type
           rdf:resource="http://purl.org/dc/dcmitype/StillImage" />
        <dc:title></dc:title>
      </cc:Work>
    </rdf:RDF>
  </metadata>
  <g
     id="layer1"
     transform="translate(-44.422801,-103.91438)">
    <path
       style="opacity:1;fill:#ffffff;fill-opacity:1;stroke:none;stroke-width:0.01812361;stroke-miterlimit:4;stroke-dasharray:none"
       d="m 64.22261,106.44418 c -2.900117,0.008 -5.851072,0.57361 -9.278121,1.63628 -1.293384,0.40107 -2.728552,0.79562 -4.314018,1.18442 l 8.556422,-0.15622 c -0.455062,-0.34189 -1.226976,-0.91704 -1.573228,-1.12021 3.035552,-0.70723 4.844211,-0.95396 6.473567,-0.96567 1.267278,-0.008 2.426156,0.12409 3.969113,0.2934 3.113533,0.40159 7.764029,2.33998 7.764029,2.33998 l -16.214186,-0.23378 c -3.036828,-0.0382 -6.073596,-0.0841 -9.110398,-0.1252 -1.40753,0.34301 -2.93007,0.68161 -4.590085,1.01531 l 4.180952,0.0202 39.879835,-0.0787 c -0.0014,-0.10931 -0.399344,-0.32424 -0.744338,-0.32783 L 76.06017,109.29312 c -4.464094,-1.95214 -8.108838,-2.86051 -11.83756,-2.84938 z"
       id="path5282" />
    <g
       id="g5499"
       transform="matrix(0.35806267,0,0,0.36454344,-135.607,90.614728)">
      <rect
         style="opacity:1;fill:url(#linearGradient5420);fill-opacity:1;stroke:none;stroke-width:0.01030334;stroke-miterlimit:4;stroke-dasharray:none"
         id="rect5296"
         width="27.858484"
         height="1.2826922"
         x="502.86432"
         y="64.975914" />
      <rect
         style="opacity:1;fill:url(#linearGradient5424);fill-opacity:1;stroke:none;stroke-width:0.01564366;stroke-miterlimit:4;stroke-dasharray:none"
         id="rect5300"
         width="64.221146"
         height="1.2826922"
         x="502.86432"
         y="67.541283" />
      <g
         id="text5306"
         style="font-style:italic;font-variant:normal;font-weight:normal;font-stretch:normal;font-size:5.85909319px;line-height:1.25;font-family:sans-serif;-inkscape-font-specification:'sans-serif Italic';letter-spacing:0px;word-spacing:0px;fill:#ffffff;fill-opacity:1;stroke:none;stroke-width:0.12206443"
         aria-label="автозапчастини">
        <path
           id="path4545"
           style="font-style:normal;font-variant:normal;font-weight:normal;font-stretch:normal;font-family:'Space Age Cyrillic';-inkscape-font-specification:'Space Age Cyrillic';fill:#ffffff;stroke-width:0.12206443"
           d="m 532.29494,66.92052 q -0.082,0.105463 -0.21678,0.105463 -0.11718,0 -0.19921,-0.08203 -0.082,-0.08203 -0.082,-0.199209 0,-0.111323 0.0586,-0.169914 l 1.42376,-1.915923 q 0.0996,-0.134759 0.26366,-0.216787 0.16406,-0.08789 0.35155,-0.08789 0.17577,0 0.33397,0.07617 0.15819,0.07617 0.2578,0.210927 l 1.42376,1.904206 q 0.0293,0.04687 0.0527,0.09375 0.0293,0.04687 0.0293,0.105464 0,0.117182 -0.082,0.199209 -0.082,0.08203 -0.19921,0.08203 -0.14648,0 -0.22265,-0.111322 l -1.36517,-1.822178 q -0.041,-0.04687 -0.10546,-0.0996 -0.0586,-0.05859 -0.12304,-0.05859 -0.0645,0 -0.1289,0.05859 -0.0586,0.05273 -0.0937,0.0996 z" />
        <path
           id="path4547"
           style="font-style:normal;font-variant:normal;font-weight:normal;font-stretch:normal;font-family:'Space Age Cyrillic';-inkscape-font-specification:'Space Age Cyrillic';fill:#ffffff;stroke-width:0.12206443"
           d="m 540.39459,66.46351 q 0.0879,0 0.15234,-0.06445 0.0703,-0.06445 0.0703,-0.152336 0,-0.09374 -0.0703,-0.152336 -0.0644,-0.06445 -0.15234,-0.06445 h -3.25179 v 0.287095 q 0,0.05859 0.0469,0.105464 0.0527,0.04101 0.13476,0.04101 z m -3.81427,-1.710855 q 0,-0.117182 0.082,-0.199209 0.082,-0.08203 0.19921,-0.08203 h 3.5096 q 0.16405,0 0.30467,0.06445 0.14648,0.05859 0.25194,0.164054 0.11132,0.105464 0.16991,0.251941 0.0645,0.140619 0.0645,0.304673 0,0.146478 -0.0527,0.275378 -0.0469,0.123041 -0.1289,0.222645 0.082,0.0996 0.1289,0.228505 0.0527,0.123041 0.0527,0.263659 0,0.164055 -0.0645,0.304673 -0.0586,0.140618 -0.16991,0.246082 -0.10546,0.105463 -0.25194,0.169913 -0.14062,0.05859 -0.30467,0.05859 h -3.07603 q -0.1289,0 -0.2578,-0.05273 -0.1289,-0.05859 -0.2285,-0.158196 -0.0996,-0.0996 -0.16406,-0.240223 -0.0644,-0.140618 -0.0644,-0.316391 v -0.527318 q 0,-0.158196 0.0879,-0.210928 0.0937,-0.05273 0.28709,-0.05273 h 3.44515 q 0.0879,0 0.15234,-0.05859 0.0645,-0.05859 0.0645,-0.152337 0,-0.08789 -0.0703,-0.152336 -0.0644,-0.07031 -0.15234,-0.07031 h -3.53303 q -0.11718,0 -0.19921,-0.08203 -0.082,-0.08203 -0.082,-0.199209 z" />
        <path
           id="path4549"
           style="font-style:normal;font-variant:normal;font-weight:normal;font-stretch:normal;font-family:'Space Age Cyrillic';-inkscape-font-specification:'Space Age Cyrillic';fill:#ffffff;stroke-width:0.12206443"
           d="m 546.0651,64.471419 q 0.11718,0 0.1992,0.08203 0.082,0.08203 0.082,0.199209 0,0.117182 -0.082,0.199209 -0.082,0.08203 -0.1992,0.08203 h -1.7343 v 1.710855 q 0,0.117182 -0.082,0.199209 -0.082,0.08203 -0.19921,0.08203 -0.11718,0 -0.19921,-0.08203 -0.082,-0.08203 -0.082,-0.199209 v -1.710855 h -1.75773 q -0.10546,-0.01172 -0.18163,-0.08789 -0.0762,-0.08203 -0.0762,-0.19335 0,-0.117182 0.082,-0.199209 0.082,-0.08203 0.19921,-0.08203 z" />
        <path
           id="path4551"
           style="font-style:normal;font-variant:normal;font-weight:normal;font-stretch:normal;font-family:'Space Age Cyrillic';-inkscape-font-specification:'Space Age Cyrillic';fill:#ffffff;stroke-width:0.12206443"
           d="m 550.50491,66.46351 q 0.19921,0 0.32811,-0.07031 0.1289,-0.07617 0.19921,-0.181632 0.0762,-0.105463 0.0996,-0.228504 0.0293,-0.1289 0.0293,-0.234364 0,-0.105464 -0.0293,-0.228505 -0.0234,-0.1289 -0.0996,-0.234363 -0.0703,-0.105464 -0.19921,-0.175773 -0.1289,-0.07617 -0.32811,-0.07617 h -2.36707 q -0.20507,0 -0.33397,0.07617 -0.12304,0.07031 -0.19921,0.175773 -0.0703,0.105463 -0.0996,0.234363 -0.0234,0.123041 -0.0234,0.228505 0,0.105464 0.0234,0.234364 0.0293,0.123041 0.0996,0.228504 0.0762,0.105464 0.19921,0.181632 0.1289,0.07031 0.33397,0.07031 z m 1.20112,-0.714809 q 0,0.222646 -0.0762,0.45115 -0.0703,0.222646 -0.21093,0.410137 -0.14062,0.181632 -0.33982,0.298814 -0.19921,0.117181 -0.45115,0.117181 h -2.67175 q -0.24022,0 -0.42771,-0.117181 -0.1875,-0.117182 -0.32225,-0.298814 -0.1289,-0.187491 -0.19921,-0.415996 -0.0703,-0.228504 -0.0703,-0.445291 0,-0.216786 0.0703,-0.445291 0.0762,-0.228505 0.21678,-0.410137 0.14062,-0.187491 0.33983,-0.304672 0.19921,-0.117182 0.45115,-0.117182 h 2.67175 q 0.23436,0 0.42185,0.117182 0.19335,0.117181 0.32225,0.304672 0.13476,0.181632 0.20507,0.410137 0.0703,0.228505 0.0703,0.445291 z" />
        <path
           id="path4553"
           style="font-style:normal;font-variant:normal;font-weight:normal;font-stretch:normal;font-family:'Space Age Cyrillic';-inkscape-font-specification:'Space Age Cyrillic';fill:#ffffff;stroke-width:0.12206443"
           d="m 552.58498,64.471419 h 3.54476 q 0.16405,0 0.30467,0.05859 0.14648,0.05859 0.25194,0.164054 0.10546,0.105464 0.16405,0.246082 0.0644,0.140618 0.0644,0.304673 0,0.146477 -0.0527,0.275377 -0.0469,0.128901 -0.13476,0.228505 0.18749,0.222646 0.18749,0.503882 0,0.164055 -0.0644,0.304673 -0.0586,0.140618 -0.16405,0.246082 -0.10546,0.105464 -0.25194,0.164054 -0.14062,0.05859 -0.30467,0.05859 h -3.54476 q -0.11718,0 -0.1992,-0.08203 -0.082,-0.08203 -0.082,-0.199209 0,-0.117182 0.082,-0.199209 0.082,-0.08203 0.1992,-0.08203 h 3.57405 q 0.0879,0 0.15234,-0.05859 0.0644,-0.06445 0.0644,-0.152337 0,-0.09374 -0.0644,-0.158195 -0.0586,-0.06445 -0.14648,-0.06445 -0.11718,0 -0.19921,-0.08203 -0.082,-0.08203 -0.082,-0.199209 0,-0.117182 0.082,-0.19335 0.082,-0.08203 0.19921,-0.08789 0.0879,0 0.14648,-0.06445 0.0644,-0.06445 0.0644,-0.158196 0,-0.08789 -0.0644,-0.146477 -0.0644,-0.06445 -0.15234,-0.06445 h -3.57405 q -0.11718,0 -0.1992,-0.08203 -0.082,-0.08203 -0.082,-0.199209 0,-0.117182 0.082,-0.199209 0.082,-0.08203 0.1992,-0.08203 z m 2.73034,0.996046 q 0.11718,0 0.19921,0.08203 0.082,0.08203 0.082,0.199209 0,0.117182 -0.082,0.199209 -0.082,0.08203 -0.19921,0.08203 h -2.0624 q -0.11718,0 -0.19921,-0.08203 -0.082,-0.08203 -0.082,-0.199209 0,-0.117182 0.082,-0.199209 0.082,-0.08203 0.19921,-0.08203 h 2.0624 z" />
        <path
           id="path4555"
           style="font-style:normal;font-variant:normal;font-weight:normal;font-stretch:normal;font-family:'Space Age Cyrillic';-inkscape-font-specification:'Space Age Cyrillic';fill:#ffffff;stroke-width:0.12206443"
           d="m 557.99714,66.92052 q -0.082,0.105463 -0.21679,0.105463 -0.11718,0 -0.19921,-0.08203 -0.082,-0.08203 -0.082,-0.199209 0,-0.111323 0.0586,-0.169914 l 1.42376,-1.915923 q 0.0996,-0.134759 0.26366,-0.216787 0.16405,-0.08789 0.35154,-0.08789 0.17577,0 0.33397,0.07617 0.1582,0.07617 0.2578,0.210927 l 1.42376,1.904206 q 0.0293,0.04687 0.0527,0.09375 0.0293,0.04687 0.0293,0.105464 0,0.117182 -0.082,0.199209 -0.082,0.08203 -0.19921,0.08203 -0.14648,0 -0.22265,-0.111322 l -1.36516,-1.822178 q -0.041,-0.04687 -0.10547,-0.0996 -0.0586,-0.05859 -0.12304,-0.05859 -0.0644,0 -0.1289,0.05859 -0.0586,0.05273 -0.0937,0.0996 z" />
        <path
           id="path4557"
           style="font-style:normal;font-variant:normal;font-weight:normal;font-stretch:normal;font-family:'Space Age Cyrillic';-inkscape-font-specification:'Space Age Cyrillic';fill:#ffffff;stroke-width:0.12206443"
           d="m 566.27256,65.748701 q 0,-0.105464 -0.0293,-0.228505 -0.0234,-0.1289 -0.0996,-0.234363 -0.0703,-0.105464 -0.19921,-0.175773 -0.1289,-0.07617 -0.32811,-0.07617 h -2.11513 q -0.20507,0 -0.33397,0.07617 -0.12304,0.07031 -0.19921,0.175773 -0.0703,0.105463 -0.0996,0.234363 -0.0234,0.123041 -0.0234,0.228505 v 0.996046 q 0,0.117182 -0.082,0.199209 -0.082,0.08203 -0.19921,0.08203 -0.11718,0 -0.19921,-0.08203 -0.082,-0.08203 -0.082,-0.199209 v -0.996046 q 0,-0.216786 0.0703,-0.445291 0.0762,-0.228505 0.21678,-0.410137 0.14062,-0.187491 0.33983,-0.304672 0.19921,-0.117182 0.45115,-0.117182 h 2.45496 q 0.23436,0 0.42186,0.117182 0.19335,0.117181 0.32225,0.304672 0.13475,0.181632 0.20506,0.410137 0.0703,0.228505 0.0703,0.445291 v 0.996046 q 0,0.117182 -0.082,0.199209 -0.082,0.08203 -0.19921,0.08203 -0.11719,0 -0.19921,-0.08203 -0.082,-0.08203 -0.082,-0.199209 z" />
        <path
           id="path4559"
           style="font-style:normal;font-variant:normal;font-weight:normal;font-stretch:normal;font-family:'Space Age Cyrillic';-inkscape-font-specification:'Space Age Cyrillic';fill:#ffffff;stroke-width:0.12206443"
           d="m 567.98314,65.485042 q 0,0.09374 0.0644,0.158195 0.0703,0.05859 0.1582,0.05859 h 2.36707 v -0.949173 q 0,-0.117182 0.082,-0.199209 0.082,-0.08203 0.19921,-0.08203 0.11718,0 0.1992,0.08203 0.082,0.08203 0.082,0.199209 v 1.992092 q 0,0.117182 -0.082,0.199209 -0.082,0.08203 -0.1992,0.08203 -0.11133,0 -0.19921,-0.08203 -0.082,-0.08203 -0.082,-0.199209 v -0.480446 h -2.34364 q -0.16405,0 -0.31053,-0.05859 -0.14648,-0.06445 -0.2578,-0.169913 -0.11132,-0.105464 -0.17577,-0.246082 -0.0645,-0.140618 -0.0645,-0.304673 v -0.732387 q 0,-0.117182 0.082,-0.199209 0.082,-0.08203 0.19921,-0.08203 0.11719,0 0.19921,0.08203 0.082,0.08203 0.082,0.199209 z" />
        <path
           id="path4561"
           style="font-style:normal;font-variant:normal;font-weight:normal;font-stretch:normal;font-family:'Space Age Cyrillic';-inkscape-font-specification:'Space Age Cyrillic';fill:#ffffff;stroke-width:0.12206443"
           d="m 572.22146,66.92052 q -0.082,0.105463 -0.21678,0.105463 -0.11719,0 -0.19921,-0.08203 -0.082,-0.08203 -0.082,-0.199209 0,-0.111323 0.0586,-0.169914 l 1.42376,-1.915923 q 0.0996,-0.134759 0.26366,-0.216787 0.16405,-0.08789 0.35154,-0.08789 0.17578,0 0.33397,0.07617 0.1582,0.07617 0.2578,0.210927 l 1.42376,1.904206 q 0.0293,0.04687 0.0527,0.09375 0.0293,0.04687 0.0293,0.105464 0,0.117182 -0.082,0.199209 -0.082,0.08203 -0.19921,0.08203 -0.14647,0 -0.22264,-0.111322 l -1.36517,-1.822178 q -0.041,-0.04687 -0.10546,-0.0996 -0.0586,-0.05859 -0.12305,-0.05859 -0.0645,0 -0.1289,0.05859 -0.0586,0.05273 -0.0937,0.0996 z" />
        <path
           id="path4563"
           style="font-style:normal;font-variant:normal;font-weight:normal;font-stretch:normal;font-family:'Space Age Cyrillic';-inkscape-font-specification:'Space Age Cyrillic';fill:#ffffff;stroke-width:0.12206443"
           d="m 576.50684,65.748701 q 0,-0.216786 0.0703,-0.445291 0.0762,-0.228505 0.21678,-0.410137 0.14062,-0.187491 0.33983,-0.304672 0.19921,-0.117182 0.45115,-0.117182 h 3.41585 q 0.11718,0 0.19921,0.08203 0.082,0.08203 0.082,0.199209 0,0.117182 -0.082,0.199209 -0.082,0.08203 -0.19921,0.08203 h -3.29281 q -0.20507,0 -0.33397,0.07617 -0.12304,0.07031 -0.19921,0.175773 -0.0703,0.105463 -0.0996,0.234363 -0.0234,0.123041 -0.0234,0.228505 0,0.105464 0.0234,0.234364 0.0293,0.123041 0.0996,0.228504 0.0762,0.105464 0.19921,0.181632 0.1289,0.07031 0.33397,0.07031 h 3.29281 q 0.11718,0 0.19921,0.08203 0.082,0.08203 0.082,0.199209 0,0.117182 -0.082,0.199209 -0.082,0.08203 -0.19921,0.08203 h -3.47444 q -0.24022,0 -0.42771,-0.117181 -0.1875,-0.117182 -0.32225,-0.298814 -0.1289,-0.187491 -0.19921,-0.410137 -0.0703,-0.228504 -0.0703,-0.45115 z" />
        <path
           id="path4565"
           style="font-style:normal;font-variant:normal;font-weight:normal;font-stretch:normal;font-family:'Space Age Cyrillic';-inkscape-font-specification:'Space Age Cyrillic';fill:#ffffff;stroke-width:0.12206443"
           d="m 586.17471,64.471419 q 0.11718,0 0.19921,0.08203 0.082,0.08203 0.082,0.199209 0,0.117182 -0.082,0.199209 -0.082,0.08203 -0.19921,0.08203 h -1.73429 v 1.710855 q 0,0.117182 -0.082,0.199209 -0.082,0.08203 -0.19921,0.08203 -0.11718,0 -0.19921,-0.08203 -0.082,-0.08203 -0.082,-0.199209 v -1.710855 h -1.75772 q -0.10547,-0.01172 -0.18164,-0.08789 -0.0762,-0.08203 -0.0762,-0.19335 0,-0.117182 0.082,-0.199209 0.082,-0.08203 0.19921,-0.08203 z" />
        <path
           id="path4567"
           style="font-style:normal;font-variant:normal;font-weight:normal;font-stretch:normal;font-family:'Space Age Cyrillic';-inkscape-font-specification:'Space Age Cyrillic';fill:#ffffff;stroke-width:0.12206443"
           d="m 587.60882,65.906897 q 0,0.210927 0.0234,0.32225 0.0234,0.111322 0.11132,0.111322 0.0469,0 0.11719,-0.03515 0.0762,-0.04101 0.18749,-0.105464 l 2.68346,-1.640546 q 0.0644,-0.04101 0.14062,-0.06445 0.082,-0.02344 0.16405,-0.02344 0.24609,0 0.40428,0.164054 0.1582,0.158196 0.1582,0.404278 v 1.704996 q 0,0.117182 -0.082,0.199209 -0.082,0.08203 -0.19921,0.08203 -0.11718,0 -0.19921,-0.08203 -0.082,-0.08203 -0.082,-0.199209 v -1.154241 q 0,-0.210928 -0.0234,-0.322251 -0.0234,-0.111322 -0.11132,-0.111322 -0.0469,0 -0.12305,0.04101 -0.0703,0.03516 -0.18163,0.0996 l -2.68346,1.640546 q -0.0645,0.04101 -0.14648,0.06445 -0.0762,0.02344 -0.15819,0.02344 -0.24609,0 -0.40428,-0.158195 -0.1582,-0.164055 -0.1582,-0.410137 v -1.704996 q 0,-0.117182 0.082,-0.199209 0.082,-0.08203 0.19921,-0.08203 0.11718,0 0.19921,0.08203 0.082,0.08203 0.082,0.199209 z" />
        <path
           id="path4569"
           style="font-style:normal;font-variant:normal;font-weight:normal;font-stretch:normal;font-family:'Space Age Cyrillic';-inkscape-font-specification:'Space Age Cyrillic';fill:#ffffff;stroke-width:0.12206443"
           d="m 596.77216,66.744747 q 0,0.117182 -0.082,0.199209 -0.082,0.08203 -0.19921,0.08203 -0.11718,0 -0.1992,-0.08203 -0.082,-0.08203 -0.082,-0.199209 v -0.714809 h -3.46273 v 0.714809 q 0,0.117182 -0.082,0.199209 -0.082,0.08203 -0.19921,0.08203 -0.11718,0 -0.19921,-0.08203 -0.082,-0.08203 -0.082,-0.199209 v -1.992092 q 0,-0.117182 0.082,-0.199209 0.082,-0.08203 0.19921,-0.08203 0.11718,0 0.19921,0.08203 0.082,0.08203 0.082,0.199209 v 0.71481 h 3.46273 v -0.71481 q 0,-0.117182 0.082,-0.199209 0.082,-0.08203 0.1992,-0.08203 0.11719,0 0.19921,0.08203 0.082,0.08203 0.082,0.199209 z" />
        <path
           id="path4571"
           style="font-style:normal;font-variant:normal;font-weight:normal;font-stretch:normal;font-family:'Space Age Cyrillic';-inkscape-font-specification:'Space Age Cyrillic';fill:#ffffff;stroke-width:0.12206443"
           d="m 597.91945,65.906897 q 0,0.210927 0.0234,0.32225 0.0234,0.111322 0.11132,0.111322 0.0469,0 0.11719,-0.03515 0.0762,-0.04101 0.18749,-0.105464 l 2.68346,-1.640546 q 0.0645,-0.04101 0.14062,-0.06445 0.082,-0.02344 0.16406,-0.02344 0.24608,0 0.40427,0.164054 0.1582,0.158196 0.1582,0.404278 v 1.704996 q 0,0.117182 -0.082,0.199209 -0.082,0.08203 -0.19921,0.08203 -0.11718,0 -0.19921,-0.08203 -0.082,-0.08203 -0.082,-0.199209 v -1.154241 q 0,-0.210928 -0.0234,-0.322251 -0.0234,-0.111322 -0.11132,-0.111322 -0.0469,0 -0.12304,0.04101 -0.0703,0.03516 -0.18164,0.0996 l -2.68346,1.640546 q -0.0644,0.04101 -0.14648,0.06445 -0.0762,0.02344 -0.15819,0.02344 -0.24609,0 -0.40428,-0.158195 -0.1582,-0.164055 -0.1582,-0.410137 v -1.704996 q 0,-0.117182 0.082,-0.199209 0.082,-0.08203 0.19921,-0.08203 0.11718,0 0.19921,0.08203 0.082,0.08203 0.082,0.199209 z" />
      </g>
      <rect
         style="opacity:1;fill:url(#linearGradient5473);fill-opacity:1;stroke:none;stroke-width:0.01564366;stroke-miterlimit:4;stroke-dasharray:none"
         id="rect5467"
         width="64.221146"
         height="1.2826922"
         x="502.86432"
         y="62.410545" />
      <rect
         transform="scale(-1,1)"
         y="67.541283"
         x="-631.30658"
         height="1.2826922"
         width="64.221146"
         id="rect5477"
         style="opacity:1;fill:url(#linearGradient5479);fill-opacity:1;stroke:none;stroke-width:0.01564366;stroke-miterlimit:4;stroke-dasharray:none" />
      <rect
         transform="scale(-1,1)"
         y="62.410545"
         x="-631.30658"
         height="1.2826922"
         width="64.221146"
         id="rect5483"
         style="opacity:1;fill:url(#linearGradient5485);fill-opacity:1;stroke:none;stroke-width:0.01564366;stroke-miterlimit:4;stroke-dasharray:none" />
      <rect
         transform="scale(-1,1)"
         y="64.975914"
         x="-631.94324"
         height="1.2826922"
         width="28.322002"
         id="rect5487"
         style="opacity:1;fill:url(#linearGradient5489);fill-opacity:1;stroke:none;stroke-width:0.01038871;stroke-miterlimit:4;stroke-dasharray:none" />
    </g>
    <g
       style="fill:#ff0000;stroke:#ff0000"
       transform="matrix(0.44523807,0,0,0.44523807,30.686292,105.41372)"
       id="g5833">
      <g
         style="fill:#ff0000;stroke:#ff0000"
         id="g5759">
        <path
           d=""
           id="use5753"
           style="fill:#ff0000;fill-opacity:1;stroke:#ff0000;stroke-width:0.26458332" />
        <g
           style="fill:#ff0000;stroke:#ff0000"
           id="g5757">
          <path
             d=""
             id="use5755"
             style="fill:#ff0000;fill-opacity:0;stroke:#ff0000;stroke-width:0.26458332;stroke-opacity:1" />
        </g>
      </g>
      <g
         style="fill:#ff0000;stroke:#ff0000"
         id="g5767">
        <path
           d=""
           id="use5761"
           style="fill:#ff0000;fill-opacity:1;stroke:#ff0000;stroke-width:0.26458332" />
        <g
           style="fill:#ff0000;stroke:#ff0000"
           id="g5765">
          <path
             d=""
             id="use5763"
             style="fill:#ff0000;fill-opacity:0;stroke:#ff0000;stroke-width:0.26458332;stroke-opacity:1" />
        </g>
      </g>
      <g
         style="fill:#ff0000;stroke:#ff0000"
         id="g5775">
        <path
           d="m 42.523833,13.895917 v 0 L 42.465625,13.567833 42.296292,13.274146 42.037,13.022792 41.698333,12.829646 41.301458,12.705292 40.98925,12.673542 v -0.0079 h -6.614583 v 0.0079 l -0.314855,0.03175 -0.396875,0.124354 -0.33602,0.193146 -0.261938,0.251354 -0.166687,0.293687 -0.06085,0.328084 h 0.0026 v 1.005416 l 0.05821,0.322792 0.166687,0.293687 0.261938,0.251355 0.33602,0.193145 0.396875,0.124355 0.314855,0.03175 v 0.0079 h 6.614583 v 0.820208 h -6.614583 v 0 l -0.280459,-0.01588 -0.391583,-0.0635 -0.367771,-0.105833 -0.341312,-0.140229 -0.309563,-0.171979 -0.275167,-0.203729 -0.232833,-0.230188 -0.1905,-0.251354 L 31.84521,15.491312 31.7579,15.20027 31.73144,14.919812 h -0.0026 v -1.023937 l 0.0291,-0.304271 0.08731,-0.291042 0.140229,-0.272521 0.1905,-0.251354 0.232833,-0.230187 0.275167,-0.20373 0.309563,-0.171979 0.341312,-0.140229 0.367771,-0.105833 0.391583,-0.0635 0.280459,-0.01588 v 0 h 6.614583 v 0 l 0.280458,0.01588 0.391584,0.0635 0.36777,0.105833 0.341313,0.140229 0.309562,0.171979 0.272521,0.20373 0.235479,0.230187 0.187855,0.251354 0.140229,0.275167 0.08731,0.288396 0.03175,0.304271 v 3.074458 h -1.11125 z"
           id="use5769"
           style="fill:#ff0000;fill-opacity:1;stroke:#ff0000;stroke-width:0.26458332" />
        <g
           style="fill:#ff0000;stroke:#ff0000"
           id="g5773">
          <path
             d="m 42.523833,13.895917 v 0 L 42.465625,13.567833 42.296292,13.274146 42.037,13.022792 41.698333,12.829646 41.301458,12.705292 40.98925,12.673542 v -0.0079 h -6.614583 v 0.0079 l -0.314855,0.03175 -0.396875,0.124354 -0.33602,0.193146 -0.261938,0.251354 -0.166687,0.293687 -0.06085,0.328084 h 0.0026 v 1.005416 l 0.05821,0.322792 0.166687,0.293687 0.261938,0.251355 0.33602,0.193145 0.396875,0.124355 0.314855,0.03175 v 0.0079 h 6.614583 v 0.820208 h -6.614583 v 0 l -0.280459,-0.01588 -0.391583,-0.0635 -0.367771,-0.105833 -0.341312,-0.140229 -0.309563,-0.171979 -0.275167,-0.203729 -0.232833,-0.230188 -0.1905,-0.251354 L 31.84521,15.491312 31.7579,15.20027 31.73144,14.919812 h -0.0026 v -1.023937 l 0.0291,-0.304271 0.08731,-0.291042 0.140229,-0.272521 0.1905,-0.251354 0.232833,-0.230187 0.275167,-0.20373 0.309563,-0.171979 0.341312,-0.140229 0.367771,-0.105833 0.391583,-0.0635 0.280459,-0.01588 v 0 h 6.614583 v 0 l 0.280458,0.01588 0.391584,0.0635 0.36777,0.105833 0.341313,0.140229 0.309562,0.171979 0.272521,0.20373 0.235479,0.230187 0.187855,0.251354 0.140229,0.275167 0.08731,0.288396 0.03175,0.304271 v 3.074458 h -1.11125 z"
             id="use5771"
             style="fill:#ff0000;fill-opacity:0;stroke:#ff0000;stroke-width:0.26458332;stroke-opacity:1" />
        </g>
      </g>
      <g
         style="fill:#ff0000;stroke:#ff0000"
         id="g5783">
        <path
           d="m 52.461583,11.728979 0.388938,0.108479 0.343958,0.169334 0.288396,0.22225 0.216958,0.267229 0.140229,0.301625 0.04762,0.328083 -0.04762,0.330729 -0.132291,0.28575 h 1.246187 v 0 l 0.394229,0.03175 0.370417,0.08996 0.338667,0.140229 0.293687,0.187854 0.240771,0.227542 0.182563,0.261937 0.116416,0.288396 0.03969,0.309562 -0.03969,0.309563 -0.116416,0.288396 -0.182563,0.261937 -0.240771,0.227542 -0.293687,0.187854 -0.338667,0.142875 -0.370417,0.08731 -0.394229,0.03175 v 0 h -9.919229 v -0.859896 h 9.911292 v -0.0079 l 0.336021,-0.05292 0.275166,-0.142875 0.185209,-0.214313 0.06879,-0.259292 -0.06879,-0.259291 -0.185209,-0.214313 -0.275166,-0.142875 -0.336021,-0.05292 v -0.0079 h -9.945688 v -2.931583 h 7.035271 v 0.02117 0 z m -6.450541,2.013479 h 6.08277 l 0.256646,-0.03969 0.256646,-0.134938 0.171979,-0.198437 0.0635,-0.243417 -0.0635,-0.240771 -0.171979,-0.198437 -0.256646,-0.134938 -0.314854,-0.05027 v 0.01058 h -6.024562 v 0 z"
           id="use5777"
           style="fill:#ff0000;fill-opacity:1;stroke:#ff0000;stroke-width:0.26458332" />
        <g
           style="fill:#ff0000;stroke:#ff0000"
           id="g5781">
          <path
             d="m 52.461583,11.728979 0.388938,0.108479 0.343958,0.169334 0.288396,0.22225 0.216958,0.267229 0.140229,0.301625 0.04762,0.328083 -0.04762,0.330729 -0.132291,0.28575 h 1.246187 v 0 l 0.394229,0.03175 0.370417,0.08996 0.338667,0.140229 0.293687,0.187854 0.240771,0.227542 0.182563,0.261937 0.116416,0.288396 0.03969,0.309562 -0.03969,0.309563 -0.116416,0.288396 -0.182563,0.261937 -0.240771,0.227542 -0.293687,0.187854 -0.338667,0.142875 -0.370417,0.08731 -0.394229,0.03175 v 0 h -9.919229 v -0.859896 h 9.911292 v -0.0079 l 0.336021,-0.05292 0.275166,-0.142875 0.185209,-0.214313 0.06879,-0.259292 -0.06879,-0.259291 -0.185209,-0.214313 -0.275166,-0.142875 -0.336021,-0.05292 v -0.0079 h -9.945688 v -2.931583 h 7.035271 v 0.02117 0 z m -6.450541,2.013479 h 6.08277 l 0.256646,-0.03969 0.256646,-0.134938 0.171979,-0.198437 0.0635,-0.243417 -0.0635,-0.240771 -0.171979,-0.198437 -0.256646,-0.134938 -0.314854,-0.05027 v 0.01058 h -6.024562 v 0 z"
             id="use5779"
             style="fill:#ff0000;fill-opacity:0;stroke:#ff0000;stroke-width:0.26458332;stroke-opacity:1" />
        </g>
      </g>
      <g
         style="fill:#ff0000;stroke:#ff0000"
         id="g5791">
        <path
           d="m 69.847354,12.453937 h -5.953125 l 0.518583,0.0026 -0.0291,4.360334 -1.010708,-0.0026 0.0291,-4.360334 h -5.461 v -0.783166 h 11.90625 z"
           id="use5785"
           style="fill:#ff0000;fill-opacity:1;stroke:#ff0000;stroke-width:0.26458332" />
        <g
           style="fill:#ff0000;stroke:#ff0000"
           id="g5789">
          <path
             d="m 69.847354,12.453937 h -5.953125 l 0.518583,0.0026 -0.0291,4.360334 -1.010708,-0.0026 0.0291,-4.360334 h -5.461 v -0.783166 h 11.90625 z"
             id="use5787"
             style="fill:#ff0000;fill-opacity:0;stroke:#ff0000;stroke-width:0.26458332;stroke-opacity:1" />
        </g>
      </g>
      <g
         style="fill:#ff0000;stroke:#ff0000"
         id="g5799">
        <path
           d="m 70.977125,13.147146 0.140229,-0.272521 0.187854,-0.251354 0.235479,-0.230188 0.272521,-0.203729 0.309563,-0.171979 0.341312,-0.140229 0.370417,-0.105834 0.388937,-0.0635 0.280459,-0.01588 v 0 h 6.926791 v 0.02117 l 0.359834,0.05821 0.367771,0.105834 0.341312,0.140229 0.309563,0.171979 0.275166,0.203729 0.232834,0.230188 0.1905,0.251354 0.140229,0.272521 0.08731,0.291041 0.0291,0.304271 h -1.108604 l -0.06085,-0.328083 -0.166687,-0.296333 -0.261938,-0.248709 -0.336021,-0.193146 -0.396875,-0.124354 -0.314854,-0.03175 v -0.0079 h -6.614583 v 0.0079 l -0.312209,0.03175 -0.396875,0.124354 -0.338666,0.193146 -0.259292,0.248709 -0.169333,0.296333 -0.05821,0.328083 v 0 1.023938 0 l 0.05821,0.328083 0.169333,0.296333 0.259292,0.248709 0.338666,0.193146 0.396875,0.124354 0.312209,0.03175 v 0.0079 h 6.614583 v -0.0079 l 0.314854,-0.03175 0.396875,-0.124354 0.336021,-0.193146 0.261938,-0.248709 0.166687,-0.296333 0.06085,-0.328083 v 0 -1.023938 h 1.108604 v 1.050396 h -0.0026 l -0.02646,0.277813 -0.08731,0.291041 -0.140229,0.272521 -0.1905,0.254 -0.232834,0.227542 -0.275166,0.203729 -0.309563,0.171979 -0.341312,0.140229 -0.367771,0.105834 -0.359834,0.05821 v 0.02117 h -6.926791 v 0 l -0.280459,-0.01588 -0.388937,-0.0635 -0.370417,-0.105834 -0.341312,-0.140229 -0.309563,-0.171979 -0.272521,-0.203729 -0.235479,-0.227542 -0.187854,-0.254 -0.140229,-0.272521 -0.08731,-0.291041 -0.0291,-0.277813 h -0.0026 v -1.050396 l 0.03175,-0.304271 z"
           id="use5793"
           style="fill:#ff0000;fill-opacity:1;stroke:#ff0000;stroke-width:0.26458332" />
        <g
           style="fill:#ff0000;stroke:#ff0000"
           id="g5797">
          <path
             d="m 70.977125,13.147146 0.140229,-0.272521 0.187854,-0.251354 0.235479,-0.230188 0.272521,-0.203729 0.309563,-0.171979 0.341312,-0.140229 0.370417,-0.105834 0.388937,-0.0635 0.280459,-0.01588 v 0 h 6.926791 v 0.02117 l 0.359834,0.05821 0.367771,0.105834 0.341312,0.140229 0.309563,0.171979 0.275166,0.203729 0.232834,0.230188 0.1905,0.251354 0.140229,0.272521 0.08731,0.291041 0.0291,0.304271 h -1.108604 l -0.06085,-0.328083 -0.166687,-0.296333 -0.261938,-0.248709 -0.336021,-0.193146 -0.396875,-0.124354 -0.314854,-0.03175 v -0.0079 h -6.614583 v 0.0079 l -0.312209,0.03175 -0.396875,0.124354 -0.338666,0.193146 -0.259292,0.248709 -0.169333,0.296333 -0.05821,0.328083 v 0 1.023938 0 l 0.05821,0.328083 0.169333,0.296333 0.259292,0.248709 0.338666,0.193146 0.396875,0.124354 0.312209,0.03175 v 0.0079 h 6.614583 v -0.0079 l 0.314854,-0.03175 0.396875,-0.124354 0.336021,-0.193146 0.261938,-0.248709 0.166687,-0.296333 0.06085,-0.328083 v 0 -1.023938 h 1.108604 v 1.050396 h -0.0026 l -0.02646,0.277813 -0.08731,0.291041 -0.140229,0.272521 -0.1905,0.254 -0.232834,0.227542 -0.275166,0.203729 -0.309563,0.171979 -0.341312,0.140229 -0.367771,0.105834 -0.359834,0.05821 v 0.02117 h -6.926791 v 0 l -0.280459,-0.01588 -0.388937,-0.0635 -0.370417,-0.105834 -0.341312,-0.140229 -0.309563,-0.171979 -0.272521,-0.203729 -0.235479,-0.227542 -0.187854,-0.254 -0.140229,-0.272521 -0.08731,-0.291041 -0.0291,-0.277813 h -0.0026 v -1.050396 l 0.03175,-0.304271 z"
             id="use5795"
             style="fill:#ff0000;fill-opacity:0;stroke:#ff0000;stroke-width:0.26458332;stroke-opacity:1" />
        </g>
      </g>
      <g
         style="fill:#ff0000;stroke:#ff0000"
         id="g5807">
        <path
           d="m 83.894083,13.128625 0.140229,-0.275167 0.187855,-0.251354 0.235479,-0.230187 0.272521,-0.20373 0.309562,-0.171979 0.341313,-0.140229 0.36777,-0.103187 0.391584,-0.06615 0.280458,-0.01587 v 0 h 6.926792 v 0.02117 l 0.359833,0.06086 0.367771,0.103187 0.341312,0.140229 0.309563,0.171979 0.275167,0.20373 0.232833,0.230187 0.1905,0.251354 0.140229,0.275167 0.08731,0.288396 0.0291,0.304271 H 94.57266 l -0.06085,-0.328084 -0.166687,-0.293687 -0.261938,-0.251354 -0.33602,-0.193146 -0.396875,-0.124354 -0.314855,-0.03175 v -0.0079 h -6.614583 v 0.0079 l -0.312208,0.03175 -0.396875,0.124354 -0.338667,0.193146 -0.259292,0.251354 -0.169333,0.293687 -0.05821,0.328084 v 0 1.026583 0 l 0.05821,0.328083 0.169333,0.293688 0.259292,0.248708 0.338667,0.193146 0.396875,0.124354 0.312208,0.03175 v 0.01058 h 6.614583 v -0.01058 l 0.312209,-0.03175 0.399521,-0.124354 0.33602,-0.193146 0.261938,-0.248708 0.166687,-0.293688 0.06085,-0.328083 h 1.108604 l -0.0291,0.304271 -0.08731,0.288396 -0.140229,0.27252 -0.1905,0.254 -0.232833,0.230188 -0.275167,0.201083 -0.309563,0.174625 -0.341312,0.140229 -0.367771,0.103188 -0.359833,0.06085 v 0.02117 h -6.926792 v -0.0026 l -0.280458,-0.01323 -0.391584,-0.06615 -0.36777,-0.103188 -0.341313,-0.140229 -0.309562,-0.174625 -0.272521,-0.201083 -0.235479,-0.230188 -0.187855,-0.254 -0.140229,-0.27252 -0.08731,-0.288396 -0.0291,-0.280459 h -0.0026 v -1.050395 l 0.03175,-0.304271 z"
           id="use5801"
           style="fill:#ff0000;fill-opacity:1;stroke:#ff0000;stroke-width:0.26458332" />
        <g
           style="fill:#ff0000;stroke:#ff0000"
           id="g5805">
          <path
             d="m 83.894083,13.128625 0.140229,-0.275167 0.187855,-0.251354 0.235479,-0.230187 0.272521,-0.20373 0.309562,-0.171979 0.341313,-0.140229 0.36777,-0.103187 0.391584,-0.06615 0.280458,-0.01587 v 0 h 6.926792 v 0.02117 l 0.359833,0.06086 0.367771,0.103187 0.341312,0.140229 0.309563,0.171979 0.275167,0.20373 0.232833,0.230187 0.1905,0.251354 0.140229,0.275167 0.08731,0.288396 0.0291,0.304271 H 94.57266 l -0.06085,-0.328084 -0.166687,-0.293687 -0.261938,-0.251354 -0.33602,-0.193146 -0.396875,-0.124354 -0.314855,-0.03175 v -0.0079 h -6.614583 v 0.0079 l -0.312208,0.03175 -0.396875,0.124354 -0.338667,0.193146 -0.259292,0.251354 -0.169333,0.293687 -0.05821,0.328084 v 0 1.026583 0 l 0.05821,0.328083 0.169333,0.293688 0.259292,0.248708 0.338667,0.193146 0.396875,0.124354 0.312208,0.03175 v 0.01058 h 6.614583 v -0.01058 l 0.312209,-0.03175 0.399521,-0.124354 0.33602,-0.193146 0.261938,-0.248708 0.166687,-0.293688 0.06085,-0.328083 h 1.108604 l -0.0291,0.304271 -0.08731,0.288396 -0.140229,0.27252 -0.1905,0.254 -0.232833,0.230188 -0.275167,0.201083 -0.309563,0.174625 -0.341312,0.140229 -0.367771,0.103188 -0.359833,0.06085 v 0.02117 h -6.926792 v -0.0026 l -0.280458,-0.01323 -0.391584,-0.06615 -0.36777,-0.103188 -0.341313,-0.140229 -0.309562,-0.174625 -0.272521,-0.201083 -0.235479,-0.230188 -0.187855,-0.254 -0.140229,-0.27252 -0.08731,-0.288396 -0.0291,-0.280459 h -0.0026 v -1.050395 l 0.03175,-0.304271 z"
             id="use5803"
             style="fill:#ff0000;fill-opacity:0;stroke:#ff0000;stroke-width:0.26458332;stroke-opacity:1" />
        </g>
      </g>
      <g
         style="fill:#ff0000;stroke:#ff0000"
         id="g5815">
        <path
           d="m 108.59823,12.475104 h -5.95313 l 0.51859,0.0026 -0.0291,4.360333 -1.01071,-0.0026 0.0291,-4.360333 h -5.461001 v -0.783167 h 11.906251 z"
           id="use5809"
           style="fill:#ff0000;fill-opacity:1;stroke:#ff0000;stroke-width:0.26458332" />
        <g
           style="fill:#ff0000;stroke:#ff0000"
           id="g5813">
          <path
             d="m 108.59823,12.475104 h -5.95313 l 0.51859,0.0026 -0.0291,4.360333 -1.01071,-0.0026 0.0291,-4.360333 h -5.461001 v -0.783167 h 11.906251 z"
             id="use5811"
             style="fill:#ff0000;fill-opacity:0;stroke:#ff0000;stroke-width:0.26458332;stroke-opacity:1" />
        </g>
      </g>
      <g
         style="fill:#ff0000;stroke:#ff0000"
         id="g5823">
        <path
           d="m 109.75975,13.147146 0.14023,-0.272521 0.18785,-0.251354 0.23548,-0.230188 0.27252,-0.203729 0.30957,-0.171979 0.34131,-0.140229 0.36777,-0.105834 0.39158,-0.0635 0.28046,-0.01588 v 0 h 6.92679 v 0.02117 l 0.35984,0.05821 0.36777,0.105834 0.34131,0.140229 0.30956,0.171979 0.27517,0.203729 0.23283,0.230188 0.1905,0.251354 0.14023,0.272521 0.0873,0.291041 0.0291,0.304271 h -1.10861 l -0.0608,-0.328083 -0.16669,-0.296333 -0.26194,-0.248709 -0.33602,-0.193146 -0.39952,-0.124354 -0.31221,-0.03175 v -0.0079 h -6.61458 v 0.0079 l -0.31221,0.03175 -0.39687,0.124354 -0.33867,0.193146 -0.25929,0.248709 -0.16933,0.296333 -0.0582,0.328083 v 0 1.023938 0 l 0.0582,0.328083 0.16933,0.296333 0.25929,0.248709 0.33867,0.193146 0.39687,0.124354 0.31221,0.03175 v 0.0079 h 6.61458 v -0.0079 l 0.31221,-0.03175 0.39952,-0.124354 0.33602,-0.193146 0.26194,-0.248709 0.16669,-0.296333 0.0608,-0.328083 v 0 -1.023938 h 1.10861 v 1.050396 h -0.003 l -0.0265,0.277813 -0.0873,0.291041 -0.14023,0.272521 -0.1905,0.254 -0.23283,0.227542 -0.27517,0.203729 -0.30956,0.171979 -0.34131,0.140229 -0.36777,0.105834 -0.35984,0.05821 v 0.02117 h -6.92679 v 0 l -0.28046,-0.01588 -0.39158,-0.0635 -0.36777,-0.105834 -0.34131,-0.140229 -0.30957,-0.171979 -0.27252,-0.203729 -0.23548,-0.227542 -0.18785,-0.254 -0.14023,-0.272521 -0.0873,-0.291041 -0.0291,-0.277813 h -0.003 v -1.050396 l 0.0317,-0.304271 z"
           id="use5817"
           style="fill:#ff0000;fill-opacity:1;stroke:#ff0000;stroke-width:0.26458332" />
        <g
           style="fill:#ff0000;stroke:#ff0000"
           id="g5821">
          <path
             d="m 109.75975,13.147146 0.14023,-0.272521 0.18785,-0.251354 0.23548,-0.230188 0.27252,-0.203729 0.30957,-0.171979 0.34131,-0.140229 0.36777,-0.105834 0.39158,-0.0635 0.28046,-0.01588 v 0 h 6.92679 v 0.02117 l 0.35984,0.05821 0.36777,0.105834 0.34131,0.140229 0.30956,0.171979 0.27517,0.203729 0.23283,0.230188 0.1905,0.251354 0.14023,0.272521 0.0873,0.291041 0.0291,0.304271 h -1.10861 l -0.0608,-0.328083 -0.16669,-0.296333 -0.26194,-0.248709 -0.33602,-0.193146 -0.39952,-0.124354 -0.31221,-0.03175 v -0.0079 h -6.61458 v 0.0079 l -0.31221,0.03175 -0.39687,0.124354 -0.33867,0.193146 -0.25929,0.248709 -0.16933,0.296333 -0.0582,0.328083 v 0 1.023938 0 l 0.0582,0.328083 0.16933,0.296333 0.25929,0.248709 0.33867,0.193146 0.39687,0.124354 0.31221,0.03175 v 0.0079 h 6.61458 v -0.0079 l 0.31221,-0.03175 0.39952,-0.124354 0.33602,-0.193146 0.26194,-0.248709 0.16669,-0.296333 0.0608,-0.328083 v 0 -1.023938 h 1.10861 v 1.050396 h -0.003 l -0.0265,0.277813 -0.0873,0.291041 -0.14023,0.272521 -0.1905,0.254 -0.23283,0.227542 -0.27517,0.203729 -0.30956,0.171979 -0.34131,0.140229 -0.36777,0.105834 -0.35984,0.05821 v 0.02117 h -6.92679 v 0 l -0.28046,-0.01588 -0.39158,-0.0635 -0.36777,-0.105834 -0.34131,-0.140229 -0.30957,-0.171979 -0.27252,-0.203729 -0.23548,-0.227542 -0.18785,-0.254 -0.14023,-0.272521 -0.0873,-0.291041 -0.0291,-0.277813 h -0.003 v -1.050396 l 0.0317,-0.304271 z"
             id="use5819"
             style="fill:#ff0000;fill-opacity:0;stroke:#ff0000;stroke-width:0.26458332;stroke-opacity:1" />
        </g>
      </g>
      <g
         style="fill:#ff0000;stroke:#ff0000"
         id="g5831">
        <path
           d="m 133.4135,13.692187 -0.0556,-0.3175 -0.15875,-0.288395 -0.24607,-0.243417 -0.32014,-0.187854 -0.37571,-0.121709 -0.29633,-0.0291 v -0.01323 h -8.39259 v 4.325938 h -1.0107 v -5.12498 h 9.40329 v 0.0053 l 0.26458,0.01323 0.37042,0.0635 0.34925,0.100542 0.32279,0.137583 0.29369,0.169334 0.25929,0.198437 0.2196,0.22225 0.17992,0.246063 0.13229,0.267229 0.082,0.283104 0.0291,0.293687 v 3.12473 h -1.04775 v -3.12473 0 z"
           id="use5825"
           style="fill:#ff0000;fill-opacity:1;stroke:#ff0000;stroke-width:0.26458332" />
        <g
           style="fill:#ff0000;stroke:#ff0000"
           id="g5829">
          <path
             d="m 133.4135,13.692187 -0.0556,-0.3175 -0.15875,-0.288395 -0.24607,-0.243417 -0.32014,-0.187854 -0.37571,-0.121709 -0.29633,-0.0291 v -0.01323 h -8.39259 v 4.325938 h -1.0107 v -5.12498 h 9.40329 v 0.0053 l 0.26458,0.01323 0.37042,0.0635 0.34925,0.100542 0.32279,0.137583 0.29369,0.169334 0.25929,0.198437 0.2196,0.22225 0.17992,0.246063 0.13229,0.267229 0.082,0.283104 0.0291,0.293687 v 3.12473 h -1.04775 v -3.12473 0 z"
             id="use5827"
             style="fill:#ff0000;fill-opacity:0;stroke:#ff0000;stroke-width:0.26458332;stroke-opacity:1" />
        </g>
      </g>
    </g>
  </g>
</svg>
